<?xml version="1.0" standalone="no"?>
<!DOCTYPE svg PUBLIC "-//W3C//DTD SVG 20010904//EN"
 "http://www.w3.org/TR/2001/REC-SVG-20010904/DTD/svg10.dtd">
<svg version="1.0" xmlns="http://www.w3.org/2000/svg"
 width="453.000000pt" height="445.000000pt" viewBox="0 0 453.000000 445.000000"
 preserveAspectRatio="xMidYMid meet">

<g transform="translate(0.000000,445.000000) scale(0.100000,-0.100000)"
fill="#000000" stroke="none">
<path d="M1306 4138 c-9 -12 -16 -31 -16 -41 0 -17 -2 -17 -19 4 -18 22 -21
23 -46 9 -15 -8 -32 -24 -37 -36 -6 -12 -21 -27 -33 -32 -17 -8 -22 -17 -19
-34 l5 -23 -12 22 c-9 18 -19 22 -48 20 -20 -1 -41 -6 -48 -10 -6 -4 -14 -3
-18 3 -3 5 -16 10 -27 10 -18 0 -20 -4 -15 -35 7 -40 -15 -49 -33 -14 -9 15
-19 19 -43 17 -29 -3 -32 -6 -32 -38 0 -54 -11 -64 -42 -40 -33 25 -58 25 -83
0 -26 -26 -25 -36 5 -62 34 -29 31 -38 -11 -38 -67 0 -96 -37 -58 -75 14 -14
15 -20 4 -39 -13 -26 -6 -65 13 -67 7 -1 -6 -5 -28 -8 -51 -8 -54 -36 -8 -66
34 -21 42 -35 21 -35 -7 0 -30 -16 -51 -35 -51 -47 -48 -76 10 -89 35 -8 41
-13 39 -33 -2 -13 -12 -34 -24 -46 -39 -42 -18 -92 28 -67 13 7 21 6 29 -4 9
-10 8 -15 -4 -20 -21 -8 -19 -34 5 -48 11 -7 20 -18 20 -25 0 -7 11 -20 25
-29 23 -15 27 -15 50 0 24 16 25 16 25 -9 0 -30 25 -43 52 -26 25 15 38 6 38
-27 0 -19 -7 -30 -22 -37 -15 -7 -23 -19 -23 -35 0 -14 -6 -29 -13 -33 -11 -7
-10 -13 4 -28 17 -19 16 -19 -15 -13 -24 5 -36 2 -50 -12 -24 -26 -34 -81 -17
-91 18 -11 29 -50 16 -58 -6 -3 -8 -11 -4 -16 3 -5 0 -16 -6 -24 -15 -18 3
-45 29 -45 14 0 14 -2 1 -10 -8 -5 -28 -10 -43 -10 -44 0 -30 -29 26 -58 48
-25 56 -44 21 -50 -72 -12 -99 -45 -61 -77 13 -11 32 -33 42 -49 16 -23 24
-27 49 -23 47 7 59 0 41 -26 -8 -12 -15 -30 -15 -40 0 -15 3 -16 22 -6 18 10
20 9 15 -5 -10 -26 3 -46 30 -46 l25 0 -22 -34 c-14 -24 -19 -43 -14 -60 7
-30 22 -34 31 -8 15 38 70 59 58 22 -3 -11 -3 -25 2 -32 4 -7 8 -22 8 -33 0
-16 6 -19 28 -17 19 2 27 -2 27 -13 0 -8 9 -15 19 -15 10 0 22 -7 25 -16 4
-10 14 -14 26 -11 24 6 24 8 4 -32 -13 -25 -13 -35 -4 -46 18 -21 39 -19 76
10 42 32 51 32 46 -5 -3 -22 0 -30 11 -30 9 0 19 5 22 11 5 6 12 4 20 -8 11
-15 15 -15 29 -4 14 12 16 11 16 -6 0 -44 -21 -128 -46 -184 -27 -60 -109
-149 -138 -149 -8 0 -33 -16 -57 -36 -24 -19 -65 -47 -93 -61 -69 -35 -124
-72 -130 -89 -3 -9 25 -36 79 -76 51 -38 78 -64 69 -66 -8 -2 -26 3 -39 12
-16 11 -25 12 -27 4 -3 -7 -22 1 -51 21 -26 18 -45 36 -42 41 3 5 -7 5 -24 0
-16 -4 -32 -6 -35 -2 -3 3 -6 1 -6 -5 0 -17 134 -135 182 -161 36 -20 39 -20
18 -3 -14 11 -22 22 -19 25 3 4 17 -2 30 -13 13 -10 42 -28 64 -40 22 -12 39
-24 37 -26 -3 -7 81 -81 109 -95 10 -6 19 -7 19 -3 0 4 4 2 9 -5 4 -7 14 -14
22 -15 8 -2 20 -6 27 -11 7 -4 15 -6 18 -3 6 6 -88 62 -98 59 -4 -1 -5 5 -1
14 3 9 13 13 22 10 9 -3 48 -17 86 -30 39 -14 86 -26 106 -26 37 0 101 -38 69
-40 -26 -2 53 -28 87 -29 35 -1 54 16 29 25 -26 10 -18 27 9 20 66 -16 76 -15
31 3 -54 22 -80 41 -56 41 8 0 57 -9 108 -19 51 -10 102 -17 113 -14 24 7 25
-12 2 -26 -15 -9 -12 -10 15 -11 56 0 37 -39 -21 -41 -21 0 -21 -1 -2 -9 19
-8 19 -9 -2 -9 -13 -1 -23 4 -23 9 0 6 -4 10 -8 10 -5 0 -9 -7 -9 -15 0 -18
-10 -18 139 -4 123 11 253 5 243 -12 -4 -5 -33 -9 -65 -9 -32 0 -62 -4 -65
-10 -3 -5 -1 -10 5 -10 23 0 2 -25 -26 -31 -21 -5 -18 -6 11 -3 22 2 70 6 108
8 37 2 73 8 80 14 6 6 48 17 92 26 44 8 134 29 199 45 66 17 122 28 124 26 6
-6 -74 -42 -133 -59 l-50 -15 80 4 c81 3 105 10 408 114 117 40 157 49 157 33
0 -4 -14 -16 -32 -27 -20 -11 -27 -20 -19 -23 7 -2 16 -1 20 4 7 11 133 54
156 54 9 0 13 -4 10 -10 -3 -5 -5 -10 -3 -10 27 1 277 101 315 125 12 8 20 21
17 28 -3 8 20 25 61 45 79 39 85 40 54 6 l-24 -27 40 25 c39 25 40 26 42 90 3
58 0 70 -29 112 -19 30 -30 58 -29 75 2 14 4 62 4 106 l2 79 -34 23 c-19 13
-51 28 -72 33 -22 6 -40 18 -44 29 -14 44 -53 56 -177 56 -109 0 -117 1 -122
20 -10 36 -6 161 5 194 12 34 47 55 76 44 12 -5 15 -2 10 9 -4 12 3 18 28 22
91 17 178 84 247 190 56 87 78 168 78 287 0 62 4 99 10 99 6 0 24 -10 40 -22
28 -20 31 -21 49 -4 11 10 31 16 47 14 25 -3 29 1 29 20 0 24 31 55 45 47 4
-3 13 2 19 9 7 8 8 17 3 20 -5 3 -7 20 -4 37 4 29 6 31 18 15 11 -16 14 -14
29 18 9 20 14 44 10 55 -5 16 0 24 19 33 31 13 35 39 6 31 -16 -4 -18 -1 -14
21 2 14 1 26 -4 26 -5 0 -7 14 -4 31 5 32 -23 69 -53 69 -8 0 -15 5 -15 11 0
5 -4 8 -9 5 -10 -6 -33 42 -26 54 3 5 1 11 -5 15 -5 3 -10 15 -10 26 0 14 -5
19 -17 17 -11 -2 -25 7 -35 23 -20 32 -52 30 -70 -5 -21 -40 -32 -45 -65 -31
-17 7 -34 11 -37 8 -3 -3 -12 0 -20 6 -12 10 -18 9 -34 -7 -10 -10 -21 -26
-25 -35 -3 -9 -11 -17 -17 -17 -23 0 -36 -27 -35 -72 0 -25 -2 -45 -6 -42 -4
2 -9 -3 -13 -11 -4 -12 -19 -6 -70 29 -99 66 -208 99 -331 100 -74 1 -115 -4
-155 -18 -175 -60 -300 -158 -300 -236 0 -11 -3 -20 -8 -20 -16 0 -92 -127
-103 -173 -11 -47 -8 -165 7 -214 5 -17 2 -23 -10 -23 -18 0 -22 -26 -5 -32
20 -7 0 -44 -51 -98 -28 -29 -50 -59 -50 -66 0 -16 28 -46 56 -62 18 -10 18
-12 -2 -39 -20 -27 -21 -32 -8 -61 7 -18 13 -48 12 -66 -1 -41 7 -56 32 -56
20 0 22 -6 34 -79 4 -19 11 -40 17 -48 15 -18 109 -17 179 2 30 8 72 15 92 15
36 0 37 -1 52 -54 28 -95 24 -107 -42 -140 -35 -19 -87 -61 -136 -110 -44 -45
-99 -93 -123 -108 -25 -16 -43 -35 -43 -46 0 -10 -11 -29 -25 -42 -14 -13 -25
-30 -25 -38 0 -8 -29 -46 -64 -86 -35 -39 -84 -100 -109 -134 -46 -63 -46 -64
-32 -95 9 -18 10 -24 3 -13 -37 54 -91 140 -134 215 -56 96 -175 227 -198 218
-9 -4 -21 2 -28 12 -7 10 -36 30 -65 44 -28 15 -61 39 -73 54 -19 24 -21 36
-16 88 5 62 28 159 47 208 14 33 25 33 138 6 47 -12 112 -22 143 -23 72 -1 91
15 98 87 4 45 8 52 28 55 32 5 55 43 44 73 -7 17 -4 34 10 61 20 38 20 38 -1
71 l-21 34 30 28 c41 39 38 67 -11 112 -61 57 -88 109 -84 163 2 25 7 79 10
120 5 54 2 89 -8 123 -15 47 -15 48 6 41 12 -3 28 -11 34 -16 15 -12 29 14 17
33 -5 9 3 10 29 5 20 -4 44 -2 54 3 10 5 26 12 36 15 9 3 17 15 17 26 0 13 7
20 19 20 21 0 33 22 25 44 -4 9 2 16 17 18 12 2 24 8 26 15 4 12 -26 47 -63
71 -13 9 -15 14 -6 18 6 3 12 14 12 25 0 10 5 19 10 19 6 0 10 7 10 15 0 8 -5
15 -12 15 -6 0 -4 7 5 18 24 27 21 47 -10 62 -16 8 -30 15 -32 17 -2 1 8 16
23 33 32 39 32 50 1 100 -26 41 -59 52 -83 28 -9 -9 -12 -9 -12 2 0 10 -5 8
-19 -5 -20 -17 -20 -16 -23 41 -3 51 -6 59 -24 62 -11 2 -28 -6 -39 -18 -10
-11 -26 -20 -36 -20 -10 0 -21 -5 -24 -10 -13 -22 -25 3 -25 54 0 39 -5 58
-20 74 -39 42 -126 20 -90 -23 16 -20 3 -40 -16 -24 -8 6 -17 9 -21 6 -3 -4
-13 -2 -20 5 -8 6 -32 11 -52 10 -36 -3 -38 -1 -34 23 4 16 1 25 -8 25 -10 0
-10 3 -1 12 23 23 14 47 -20 56 l-33 9 31 16 c61 31 50 86 -13 68 -39 -11 -47
2 -26 42 18 35 11 54 -22 67 -14 5 -25 14 -25 20 0 10 -16 8 -58 -8 -12 -4
-12 -1 0 17 11 19 11 24 -2 34 -9 7 -16 27 -15 46 0 30 -4 35 -30 42 -33 9
-102 1 -111 -13 -3 -4 -19 6 -35 23 -16 17 -34 29 -41 27 -6 -2 -20 4 -30 14
-10 10 -26 18 -35 18 -10 0 -27 7 -37 15 -28 21 -52 19 -70 -7z m767 -1625 c4
-36 2 -43 -12 -43 -10 0 -28 11 -40 24 l-22 23 33 20 c18 11 34 20 34 19 1 -1
4 -20 7 -43z m657 -4 c0 -12 -41 -49 -55 -49 -6 0 -9 15 -7 39 4 39 4 39 33
29 16 -5 29 -14 29 -19z m-1212 -217 c2 -7 -3 -12 -12 -12 -9 0 -16 7 -16 16
0 17 22 14 28 -4z m1638 -23 c3 -6 1 -16 -5 -22 -8 -8 -11 -6 -11 6 0 9 -7 17
-15 17 -18 0 -20 -16 -2 -23 9 -4 9 -6 0 -6 -15 -1 -26 16 -18 29 8 13 42 13
51 -1z m-1936 -695 c0 -2 -9 0 -20 6 -11 6 -20 13 -20 16 0 2 9 0 20 -6 11 -6
20 -13 20 -16z m160 -101 c0 -7 -39 17 -46 28 -3 6 5 3 20 -6 14 -10 26 -19
26 -22z m50 -29 c0 -2 -9 0 -20 6 -11 6 -20 13 -20 16 0 2 9 0 20 -6 11 -6 20
-13 20 -16z m-75 6 c3 -6 -1 -7 -9 -4 -18 7 -21 14 -7 14 6 0 13 -4 16 -10z
m618 -51 c-6 -6 -7 3 -4 23 4 28 6 29 9 9 2 -13 0 -27 -5 -32z m-443 -15 c0
-2 -9 0 -20 6 -11 6 -20 13 -20 16 0 2 9 0 20 -6 11 -6 20 -13 20 -16z m420
-20 c-8 -8 -23 -20 -34 -25 -13 -7 -9 -1 9 15 34 29 43 33 25 10z m801 -38
l40 -6 -56 -63 c-31 -34 -79 -95 -106 -135 -27 -41 -49 -71 -49 -67 0 12 90
259 107 295 17 35 17 35 21 9 3 -22 9 -28 43 -33z m-1038 -3 c-7 -2 -19 -2
-25 0 -7 3 -2 5 12 5 14 0 19 -2 13 -5z m115 -10 c-16 -2 -40 -2 -55 0 -16 2
-3 4 27 4 30 0 43 -2 28 -4z m15 -50 c-7 -2 -21 -2 -30 0 -10 3 -4 5 12 5 17
0 24 -2 18 -5z m14 -29 c-3 -3 -12 -4 -19 -1 -8 3 -5 6 6 6 11 1 17 -2 13 -5z"/>
<path d="M895 3090 c-3 -5 -1 -10 4 -10 6 0 11 5 11 10 0 6 -2 10 -4 10 -3 0
-8 -4 -11 -10z"/>
<path d="M3310 2091 c0 -6 4 -13 10 -16 6 -3 7 1 4 9 -7 18 -14 21 -14 7z"/>
<path d="M3380 2076 c0 -2 7 -7 16 -10 8 -3 12 -2 9 4 -6 10 -25 14 -25 6z"/>
<path d="M1370 1006 c0 -2 7 -7 16 -10 8 -3 12 -2 9 4 -6 10 -25 14 -25 6z"/>
</g>
</svg>
